# xmcd
#
# Track frame offsets:
# 150
# 14951
# 30534
# 45713
# 58665
# 71605
# 85760
# 101209
# 115381
# 130727
# 144702
# 161950
# 175911
# 189281
# 208171
# 219921
# 234972
# 250103
# 266451
# 280101
#
# Disc length: 3924 seconds
#
#
# Revision: 0
# Processed by: cddbd v1.5.2PL0 Copyright (c) Steve Scherf et al.
# Submitted via: FreeRIP 2.951 
#
DISCID=280f5214
DTITLE=João Marcio e Fabiano - CD Universitário
DYEAR=2006
DGENRE=Sertanejo
TTITLE0=Me Perdi e Me Encontrei
TTITLE1=Batidão
TTITLE2=Eu Bebo e Choro
TTITLE3=O Borga do Vizinho
TTITLE4=Homem de Rocha
TTITLE5=Na Direção de seu Destino
TTITLE6=O Mais Fraco Coração
TTITLE7=Hoje Não Mais
TTITLE8=Dançando a Vaneira
TTITLE9=Traz a Boa
TTITLE10=Aqui ce Chia
TTITLE11=Um Anjo
TTITLE12=Chama Você
TTITLE13=Se Ainda Sou Você Mais do que Eu
TTITLE14=Deus te fez Assim
TTITLE15=Não Passou de um sonho
TTITLE16=Lágrimas de um Homem
TTITLE17=Vou Te Amar
TTITLE18=Meu Coração Ainda te Ama
TTITLE19=Ira
EXTD=
EXTT0=
EXTT1=
EXTT2=
EXTT3=
EXTT4=
EXTT5=
EXTT6=
EXTT7=
EXTT8=
EXTT9=
EXTT10=
EXTT11=
EXTT12=
EXTT13=
EXTT14=
EXTT15=
EXTT16=
EXTT17=
EXTT18=
EXTT19=
PLAYORDER=
